<svg xmlns="http://www.w3.org/2000/svg" width="640" height="482" viewBox="0 0 640 482">
<rect width="100%" height="100%" fill="white"/>
<text x="320.0" y="24.0" font-family="Arial, sans-serif" font-size="16" text-anchor="middle" fill="#111827" font-weight="bold">GSM8K output throughput by tp</text>
<text x="12.0" y="62.0" font-family="Arial, sans-serif" font-size="12" text-anchor="start" fill="#111827" font-weight="bold">tp=4</text>
<line x1="58" y1="222.0" x2="616" y2="222.0" stroke="#d1d5db" stroke-width="1"/>
<text x="50.0" y="226.0" font-family="Arial, sans-serif" font-size="10" text-anchor="end" fill="#6b7280" font-weight="normal">160</text>
<line x1="58" y1="186.5" x2="616" y2="186.5" stroke="#d1d5db" stroke-width="1"/>
<text x="50.0" y="190.5" font-family="Arial, sans-serif" font-size="10" text-anchor="end" fill="#6b7280" font-weight="normal">252</text>
<line x1="58" y1="151.0" x2="616" y2="151.0" stroke="#d1d5db" stroke-width="1"/>
<text x="50.0" y="155.0" font-family="Arial, sans-serif" font-size="10" text-anchor="end" fill="#6b7280" font-weight="normal">343</text>
<line x1="58" y1="115.5" x2="616" y2="115.5" stroke="#d1d5db" stroke-width="1"/>
<text x="50.0" y="119.5" font-family="Arial, sans-serif" font-size="10" text-anchor="end" fill="#6b7280" font-weight="normal">434</text>
<line x1="58" y1="80.0" x2="616" y2="80.0" stroke="#d1d5db" stroke-width="1"/>
<text x="50.0" y="84.0" font-family="Arial, sans-serif" font-size="10" text-anchor="end" fill="#6b7280" font-weight="normal">526</text>
<line x1="58" y1="222" x2="616" y2="222" stroke="#374151"/>
<line x1="58" y1="80" x2="58" y2="222" stroke="#374151"/>
<text x="58.0" y="244.0" font-family="Arial, sans-serif" font-size="11" text-anchor="middle" fill="#6b7280" font-weight="normal">1</text>
<text x="197.5" y="244.0" font-family="Arial, sans-serif" font-size="11" text-anchor="middle" fill="#6b7280" font-weight="normal">4</text>
<text x="337.0" y="244.0" font-family="Arial, sans-serif" font-size="11" text-anchor="middle" fill="#6b7280" font-weight="normal">8</text>
<text x="476.5" y="244.0" font-family="Arial, sans-serif" font-size="11" text-anchor="middle" fill="#6b7280" font-weight="normal">16</text>
<text x="616.0" y="244.0" font-family="Arial, sans-serif" font-size="11" text-anchor="middle" fill="#6b7280" font-weight="normal">32</text>
<text x="337.0" y="256.0" font-family="Arial, sans-serif" font-size="11" text-anchor="middle" fill="#6b7280" font-weight="normal">bs</text>
<polyline points="58.0,216.6 197.5,203.2 337.0,189.1 476.5,157.1 616.0,114.2" fill="none" stroke="#2563eb" stroke-width="2.2"/>
<circle cx="58.0" cy="216.6" r="3.2" fill="#2563eb"/>
<circle cx="197.5" cy="203.2" r="3.2" fill="#2563eb"/>
<circle cx="337.0" cy="189.1" r="3.2" fill="#2563eb"/>
<circle cx="476.5" cy="157.1" r="3.2" fill="#2563eb"/>
<circle cx="616.0" cy="114.2" r="3.2" fill="#2563eb"/>
<polyline points="58.0,198.8 197.5,180.8 337.0,159.6 476.5,125.4 616.0,95.1" fill="none" stroke="#dc2626" stroke-width="2.2"/>
<circle cx="58.0" cy="198.8" r="3.2" fill="#dc2626"/>
<circle cx="197.5" cy="180.8" r="3.2" fill="#dc2626"/>
<circle cx="337.0" cy="159.6" r="3.2" fill="#dc2626"/>
<circle cx="476.5" cy="125.4" r="3.2" fill="#dc2626"/>
<circle cx="616.0" cy="95.1" r="3.2" fill="#dc2626"/>
<text x="12.0" y="282.0" font-family="Arial, sans-serif" font-size="12" text-anchor="start" fill="#111827" font-weight="bold">tp=8</text>
<line x1="58" y1="442.0" x2="616" y2="442.0" stroke="#d1d5db" stroke-width="1"/>
<text x="50.0" y="446.0" font-family="Arial, sans-serif" font-size="10" text-anchor="end" fill="#6b7280" font-weight="normal">190</text>
<line x1="58" y1="406.5" x2="616" y2="406.5" stroke="#d1d5db" stroke-width="1"/>
<text x="50.0" y="410.5" font-family="Arial, sans-serif" font-size="10" text-anchor="end" fill="#6b7280" font-weight="normal">318</text>
<line x1="58" y1="371.0" x2="616" y2="371.0" stroke="#d1d5db" stroke-width="1"/>
<text x="50.0" y="375.0" font-family="Arial, sans-serif" font-size="10" text-anchor="end" fill="#6b7280" font-weight="normal">447</text>
<line x1="58" y1="335.5" x2="616" y2="335.5" stroke="#d1d5db" stroke-width="1"/>
<text x="50.0" y="339.5" font-family="Arial, sans-serif" font-size="10" text-anchor="end" fill="#6b7280" font-weight="normal">575</text>
<line x1="58" y1="300.0" x2="616" y2="300.0" stroke="#d1d5db" stroke-width="1"/>
<text x="50.0" y="304.0" font-family="Arial, sans-serif" font-size="10" text-anchor="end" fill="#6b7280" font-weight="normal">703</text>
<line x1="58" y1="442" x2="616" y2="442" stroke="#374151"/>
<line x1="58" y1="300" x2="58" y2="442" stroke="#374151"/>
<text x="58.0" y="464.0" font-family="Arial, sans-serif" font-size="11" text-anchor="middle" fill="#6b7280" font-weight="normal">1</text>
<text x="197.5" y="464.0" font-family="Arial, sans-serif" font-size="11" text-anchor="middle" fill="#6b7280" font-weight="normal">4</text>
<text x="337.0" y="464.0" font-family="Arial, sans-serif" font-size="11" text-anchor="middle" fill="#6b7280" font-weight="normal">8</text>
<text x="476.5" y="464.0" font-family="Arial, sans-serif" font-size="11" text-anchor="middle" fill="#6b7280" font-weight="normal">16</text>
<text x="616.0" y="464.0" font-family="Arial, sans-serif" font-size="11" text-anchor="middle" fill="#6b7280" font-weight="normal">32</text>
<text x="337.0" y="476.0" font-family="Arial, sans-serif" font-size="11" text-anchor="middle" fill="#6b7280" font-weight="normal">bs</text>
<polyline points="58.0,437.4 197.5,427.7 337.0,399.1 476.5,376.9 616.0,339.3" fill="none" stroke="#2563eb" stroke-width="2.2"/>
<circle cx="58.0" cy="437.4" r="3.2" fill="#2563eb"/>
<circle cx="197.5" cy="427.7" r="3.2" fill="#2563eb"/>
<circle cx="337.0" cy="399.1" r="3.2" fill="#2563eb"/>
<circle cx="476.5" cy="376.9" r="3.2" fill="#2563eb"/>
<circle cx="616.0" cy="339.3" r="3.2" fill="#2563eb"/>
<polyline points="58.0,428.1 197.5,412.5 337.0,381.0 476.5,350.8 616.0,314.4" fill="none" stroke="#dc2626" stroke-width="2.2"/>
<circle cx="58.0" cy="428.1" r="3.2" fill="#dc2626"/>
<circle cx="197.5" cy="412.5" r="3.2" fill="#dc2626"/>
<circle cx="337.0" cy="381.0" r="3.2" fill="#dc2626"/>
<circle cx="476.5" cy="350.8" r="3.2" fill="#dc2626"/>
<circle cx="616.0" cy="314.4" r="3.2" fill="#dc2626"/>
<circle cx="500" cy="18" r="4" fill="#2563eb"/>
<text x="510.0" y="22.0" font-family="Arial, sans-serif" font-size="11" text-anchor="start" fill="#111827" font-weight="normal">bf16</text>
<circle cx="560" cy="18" r="4" fill="#dc2626"/>
<text x="570.0" y="22.0" font-family="Arial, sans-serif" font-size="11" text-anchor="start" fill="#111827" font-weight="normal">int8</text>
<text x="12.0" y="241.0" font-family="Arial, sans-serif" font-size="11" text-anchor="middle" fill="#6b7280" font-weight="normal">tokens/s</text>
</svg>