<svg xmlns="http://www.w3.org/2000/svg" width="560" height="530" viewBox="0 0 560 530">
<rect width="100%" height="100%" fill="white"/>
<text x="280.0" y="24.0" font-family="Arial, sans-serif" font-size="18" text-anchor="middle" fill="#111827" font-weight="bold">Eval score by tp</text>
<text x="14.0" y="265.0" font-family="Arial, sans-serif" font-size="12" text-anchor="middle" fill="#6b7280" font-weight="normal">score</text>
<text x="56.0" y="63.0" font-family="Arial, sans-serif" font-size="13" text-anchor="start" fill="#111827" font-weight="bold">tp=1</text>
<line x1="56" y1="226" x2="538" y2="226" stroke="#374151"/>
<line x1="56" y1="78" x2="56" y2="226" stroke="#374151"/>
<line x1="56" y1="78.0" x2="538" y2="78.0" stroke="#d1d5db" stroke-dasharray="3 3"/>
<text x="48.0" y="82.0" font-family="Arial, sans-serif" font-size="10" text-anchor="end" fill="#6b7280" font-weight="normal">0.29</text>
<line x1="56" y1="115.0" x2="538" y2="115.0" stroke="#d1d5db" stroke-dasharray="3 3"/>
<text x="48.0" y="119.0" font-family="Arial, sans-serif" font-size="10" text-anchor="end" fill="#6b7280" font-weight="normal">0.27</text>
<line x1="56" y1="152.0" x2="538" y2="152.0" stroke="#d1d5db" stroke-dasharray="3 3"/>
<text x="48.0" y="156.0" font-family="Arial, sans-serif" font-size="10" text-anchor="end" fill="#6b7280" font-weight="normal">0.25</text>
<line x1="56" y1="189.0" x2="538" y2="189.0" stroke="#d1d5db" stroke-dasharray="3 3"/>
<text x="48.0" y="193.0" font-family="Arial, sans-serif" font-size="10" text-anchor="end" fill="#6b7280" font-weight="normal">0.23</text>
<line x1="56" y1="226.0" x2="538" y2="226.0" stroke="#d1d5db" stroke-dasharray="3 3"/>
<text x="48.0" y="230.0" font-family="Arial, sans-serif" font-size="10" text-anchor="end" fill="#6b7280" font-weight="normal">0.21</text>
<text x="56.0" y="246.0" font-family="Arial, sans-serif" font-size="10" text-anchor="middle" fill="#6b7280" font-weight="normal">1</text>
<text x="262.6" y="246.0" font-family="Arial, sans-serif" font-size="10" text-anchor="middle" fill="#6b7280" font-weight="normal">4</text>
<text x="538.0" y="246.0" font-family="Arial, sans-serif" font-size="10" text-anchor="middle" fill="#6b7280" font-weight="normal">8</text>
<text x="297.0" y="262.0" font-family="Arial, sans-serif" font-size="11" text-anchor="middle" fill="#6b7280" font-weight="normal">bs</text>
<polyline fill="none" stroke="#2563eb" stroke-width="2.2" points="56.0,92.3 262.6,161.9 538.0,191.8"/>
<circle cx="56.0" cy="92.3" r="4" fill="#2563eb"/>
<text x="56.0" y="84.3" font-family="Arial, sans-serif" font-size="10" text-anchor="middle" fill="#2563eb" font-weight="normal">0.283</text>
<circle cx="262.6" cy="161.9" r="4" fill="#2563eb"/>
<text x="262.6" y="153.9" font-family="Arial, sans-serif" font-size="10" text-anchor="middle" fill="#2563eb" font-weight="normal">0.247</text>
<circle cx="538.0" cy="191.8" r="4" fill="#2563eb"/>
<text x="538.0" y="183.8" font-family="Arial, sans-serif" font-size="10" text-anchor="middle" fill="#2563eb" font-weight="normal">0.232</text>
<polyline fill="none" stroke="#dc2626" stroke-width="2.2" points="56.0,211.7 262.6,171.9 538.0,152.0"/>
<circle cx="56.0" cy="211.7" r="4" fill="#dc2626"/>
<text x="56.0" y="203.7" font-family="Arial, sans-serif" font-size="10" text-anchor="middle" fill="#dc2626" font-weight="normal">0.222</text>
<circle cx="262.6" cy="171.9" r="4" fill="#dc2626"/>
<text x="262.6" y="163.9" font-family="Arial, sans-serif" font-size="10" text-anchor="middle" fill="#dc2626" font-weight="normal">0.242</text>
<circle cx="538.0" cy="152.0" r="4" fill="#dc2626"/>
<text x="538.0" y="144.0" font-family="Arial, sans-serif" font-size="10" text-anchor="middle" fill="#dc2626" font-weight="normal">0.253</text>
<text x="56.0" y="283.0" font-family="Arial, sans-serif" font-size="13" text-anchor="start" fill="#111827" font-weight="bold">tp=4</text>
<line x1="56" y1="446" x2="538" y2="446" stroke="#374151"/>
<line x1="56" y1="298" x2="56" y2="446" stroke="#374151"/>
<line x1="56" y1="298.0" x2="538" y2="298.0" stroke="#d1d5db" stroke-dasharray="3 3"/>
<text x="48.0" y="302.0" font-family="Arial, sans-serif" font-size="10" text-anchor="end" fill="#6b7280" font-weight="normal">0.24</text>
<line x1="56" y1="335.0" x2="538" y2="335.0" stroke="#d1d5db" stroke-dasharray="3 3"/>
<text x="48.0" y="339.0" font-family="Arial, sans-serif" font-size="10" text-anchor="end" fill="#6b7280" font-weight="normal">0.24</text>
<line x1="56" y1="372.0" x2="538" y2="372.0" stroke="#d1d5db" stroke-dasharray="3 3"/>
<text x="48.0" y="376.0" font-family="Arial, sans-serif" font-size="10" text-anchor="end" fill="#6b7280" font-weight="normal">0.23</text>
<line x1="56" y1="409.0" x2="538" y2="409.0" stroke="#d1d5db" stroke-dasharray="3 3"/>
<text x="48.0" y="413.0" font-family="Arial, sans-serif" font-size="10" text-anchor="end" fill="#6b7280" font-weight="normal">0.23</text>
<line x1="56" y1="446.0" x2="538" y2="446.0" stroke="#d1d5db" stroke-dasharray="3 3"/>
<text x="48.0" y="450.0" font-family="Arial, sans-serif" font-size="10" text-anchor="end" fill="#6b7280" font-weight="normal">0.23</text>
<text x="56.0" y="466.0" font-family="Arial, sans-serif" font-size="10" text-anchor="middle" fill="#6b7280" font-weight="normal">1</text>
<text x="538.0" y="466.0" font-family="Arial, sans-serif" font-size="10" text-anchor="middle" fill="#6b7280" font-weight="normal">4</text>
<text x="297.0" y="482.0" font-family="Arial, sans-serif" font-size="11" text-anchor="middle" fill="#6b7280" font-weight="normal">bs</text>
<polyline fill="none" stroke="#2563eb" stroke-width="2.2" points="56.0,431.7 538.0,391.9"/>
<circle cx="56.0" cy="431.7" r="4" fill="#2563eb"/>
<text x="56.0" y="423.7" font-family="Arial, sans-serif" font-size="10" text-anchor="middle" fill="#2563eb" font-weight="normal">0.227</text>
<circle cx="538.0" cy="391.9" r="4" fill="#2563eb"/>
<text x="538.0" y="383.9" font-family="Arial, sans-serif" font-size="10" text-anchor="middle" fill="#2563eb" font-weight="normal">0.232</text>
<polyline fill="none" stroke="#dc2626" stroke-width="2.2" points="56.0,391.9 538.0,312.3"/>
<circle cx="56.0" cy="391.9" r="4" fill="#dc2626"/>
<text x="56.0" y="383.9" font-family="Arial, sans-serif" font-size="10" text-anchor="middle" fill="#dc2626" font-weight="normal">0.232</text>
<circle cx="538.0" cy="312.3" r="4" fill="#dc2626"/>
<text x="538.0" y="304.3" font-family="Arial, sans-serif" font-size="10" text-anchor="middle" fill="#dc2626" font-weight="normal">0.242</text>
<circle cx="430" cy="516" r="4" fill="#2563eb"/>
<text x="442.0" y="520.0" font-family="Arial, sans-serif" font-size="11" text-anchor="start" fill="#111827" font-weight="normal">bf16</text>
<circle cx="490" cy="516" r="4" fill="#dc2626"/>
<text x="502.0" y="520.0" font-family="Arial, sans-serif" font-size="11" text-anchor="start" fill="#111827" font-weight="normal">int8</text>
</svg>