<svg xmlns="http://www.w3.org/2000/svg" width="560" height="530" viewBox="0 0 560 530">
<rect width="100%" height="100%" fill="white"/>
<text x="280.0" y="24.0" font-family="Arial, sans-serif" font-size="18" text-anchor="middle" fill="#111827" font-weight="bold">Eval latency by tp</text>
<text x="14.0" y="265.0" font-family="Arial, sans-serif" font-size="12" text-anchor="middle" fill="#6b7280" font-weight="normal">seconds</text>
<text x="56.0" y="63.0" font-family="Arial, sans-serif" font-size="13" text-anchor="start" fill="#111827" font-weight="bold">tp=1</text>
<line x1="56" y1="226" x2="538" y2="226" stroke="#374151"/>
<line x1="56" y1="78" x2="56" y2="226" stroke="#374151"/>
<line x1="56" y1="78.0" x2="538" y2="78.0" stroke="#d1d5db" stroke-dasharray="3 3"/>
<text x="48.0" y="82.0" font-family="Arial, sans-serif" font-size="10" text-anchor="end" fill="#6b7280" font-weight="normal">1534.8</text>
<line x1="56" y1="115.0" x2="538" y2="115.0" stroke="#d1d5db" stroke-dasharray="3 3"/>
<text x="48.0" y="119.0" font-family="Arial, sans-serif" font-size="10" text-anchor="end" fill="#6b7280" font-weight="normal">1264</text>
<line x1="56" y1="152.0" x2="538" y2="152.0" stroke="#d1d5db" stroke-dasharray="3 3"/>
<text x="48.0" y="156.0" font-family="Arial, sans-serif" font-size="10" text-anchor="end" fill="#6b7280" font-weight="normal">993.19</text>
<line x1="56" y1="189.0" x2="538" y2="189.0" stroke="#d1d5db" stroke-dasharray="3 3"/>
<text x="48.0" y="193.0" font-family="Arial, sans-serif" font-size="10" text-anchor="end" fill="#6b7280" font-weight="normal">722.39</text>
<line x1="56" y1="226.0" x2="538" y2="226.0" stroke="#d1d5db" stroke-dasharray="3 3"/>
<text x="48.0" y="230.0" font-family="Arial, sans-serif" font-size="10" text-anchor="end" fill="#6b7280" font-weight="normal">451.58</text>
<text x="56.0" y="246.0" font-family="Arial, sans-serif" font-size="10" text-anchor="middle" fill="#6b7280" font-weight="normal">1</text>
<text x="262.6" y="246.0" font-family="Arial, sans-serif" font-size="10" text-anchor="middle" fill="#6b7280" font-weight="normal">4</text>
<text x="538.0" y="246.0" font-family="Arial, sans-serif" font-size="10" text-anchor="middle" fill="#6b7280" font-weight="normal">8</text>
<text x="297.0" y="262.0" font-family="Arial, sans-serif" font-size="11" text-anchor="middle" fill="#6b7280" font-weight="normal">bs</text>
<polyline fill="none" stroke="#2563eb" stroke-width="2.2" points="56.0,92.3 262.6,149.6 538.0,183.8"/>
<circle cx="56.0" cy="92.3" r="4" fill="#2563eb"/>
<text x="56.0" y="84.3" font-family="Arial, sans-serif" font-size="10" text-anchor="middle" fill="#2563eb" font-weight="normal">1429.976</text>
<circle cx="262.6" cy="149.6" r="4" fill="#2563eb"/>
<text x="262.6" y="141.6" font-family="Arial, sans-serif" font-size="10" text-anchor="middle" fill="#2563eb" font-weight="normal">1010.968</text>
<circle cx="538.0" cy="183.8" r="4" fill="#2563eb"/>
<text x="538.0" y="175.8" font-family="Arial, sans-serif" font-size="10" text-anchor="middle" fill="#2563eb" font-weight="normal">760.656</text>
<polyline fill="none" stroke="#dc2626" stroke-width="2.2" points="56.0,121.1 262.6,185.7 538.0,211.7"/>
<circle cx="56.0" cy="121.1" r="4" fill="#dc2626"/>
<text x="56.0" y="113.1" font-family="Arial, sans-serif" font-size="10" text-anchor="middle" fill="#dc2626" font-weight="normal">1219.206</text>
<circle cx="262.6" cy="185.7" r="4" fill="#dc2626"/>
<text x="262.6" y="177.7" font-family="Arial, sans-serif" font-size="10" text-anchor="middle" fill="#dc2626" font-weight="normal">746.889</text>
<circle cx="538.0" cy="211.7" r="4" fill="#dc2626"/>
<text x="538.0" y="203.7" font-family="Arial, sans-serif" font-size="10" text-anchor="middle" fill="#dc2626" font-weight="normal">556.41</text>
<text x="56.0" y="283.0" font-family="Arial, sans-serif" font-size="13" text-anchor="start" fill="#111827" font-weight="bold">tp=4</text>
<line x1="56" y1="446" x2="538" y2="446" stroke="#374151"/>
<line x1="56" y1="298" x2="56" y2="446" stroke="#374151"/>
<line x1="56" y1="298.0" x2="538" y2="298.0" stroke="#d1d5db" stroke-dasharray="3 3"/>
<text x="48.0" y="302.0" font-family="Arial, sans-serif" font-size="10" text-anchor="end" fill="#6b7280" font-weight="normal">1295.03</text>
<line x1="56" y1="335.0" x2="538" y2="335.0" stroke="#d1d5db" stroke-dasharray="3 3"/>
<text x="48.0" y="339.0" font-family="Arial, sans-serif" font-size="10" text-anchor="end" fill="#6b7280" font-weight="normal">1071.86</text>
<line x1="56" y1="372.0" x2="538" y2="372.0" stroke="#d1d5db" stroke-dasharray="3 3"/>
<text x="48.0" y="376.0" font-family="Arial, sans-serif" font-size="10" text-anchor="end" fill="#6b7280" font-weight="normal">848.69</text>
<line x1="56" y1="409.0" x2="538" y2="409.0" stroke="#d1d5db" stroke-dasharray="3 3"/>
<text x="48.0" y="413.0" font-family="Arial, sans-serif" font-size="10" text-anchor="end" fill="#6b7280" font-weight="normal">625.52</text>
<line x1="56" y1="446.0" x2="538" y2="446.0" stroke="#d1d5db" stroke-dasharray="3 3"/>
<text x="48.0" y="450.0" font-family="Arial, sans-serif" font-size="10" text-anchor="end" fill="#6b7280" font-weight="normal">402.34</text>
<text x="56.0" y="466.0" font-family="Arial, sans-serif" font-size="10" text-anchor="middle" fill="#6b7280" font-weight="normal">1</text>
<text x="262.6" y="466.0" font-family="Arial, sans-serif" font-size="10" text-anchor="middle" fill="#6b7280" font-weight="normal">4</text>
<text x="538.0" y="466.0" font-family="Arial, sans-serif" font-size="10" text-anchor="middle" fill="#6b7280" font-weight="normal">8</text>
<text x="297.0" y="482.0" font-family="Arial, sans-serif" font-size="11" text-anchor="middle" fill="#6b7280" font-weight="normal">bs</text>
<polyline fill="none" stroke="#2563eb" stroke-width="2.2" points="56.0,317.5 262.6,392.1 538.0,422.7"/>
<circle cx="56.0" cy="317.5" r="4" fill="#2563eb"/>
<text x="56.0" y="309.5" font-family="Arial, sans-serif" font-size="10" text-anchor="middle" fill="#2563eb" font-weight="normal">1177.184</text>
<circle cx="262.6" cy="392.1" r="4" fill="#2563eb"/>
<text x="262.6" y="384.1" font-family="Arial, sans-serif" font-size="10" text-anchor="middle" fill="#2563eb" font-weight="normal">727.478</text>
<circle cx="538.0" cy="422.7" r="4" fill="#2563eb"/>
<text x="538.0" y="414.7" font-family="Arial, sans-serif" font-size="10" text-anchor="middle" fill="#2563eb" font-weight="normal">542.887</text>
<polyline fill="none" stroke="#dc2626" stroke-width="2.2" points="56.0,312.3 262.6,405.0 538.0,431.7"/>
<circle cx="56.0" cy="312.3" r="4" fill="#dc2626"/>
<text x="56.0" y="304.3" font-family="Arial, sans-serif" font-size="10" text-anchor="middle" fill="#dc2626" font-weight="normal">1208.642</text>
<circle cx="262.6" cy="405.0" r="4" fill="#dc2626"/>
<text x="262.6" y="397.0" font-family="Arial, sans-serif" font-size="10" text-anchor="middle" fill="#dc2626" font-weight="normal">649.88</text>
<circle cx="538.0" cy="431.7" r="4" fill="#dc2626"/>
<text x="538.0" y="423.7" font-family="Arial, sans-serif" font-size="10" text-anchor="middle" fill="#dc2626" font-weight="normal">488.733</text>
<circle cx="430" cy="516" r="4" fill="#2563eb"/>
<text x="442.0" y="520.0" font-family="Arial, sans-serif" font-size="11" text-anchor="start" fill="#111827" font-weight="normal">bf16</text>
<circle cx="490" cy="516" r="4" fill="#dc2626"/>
<text x="502.0" y="520.0" font-family="Arial, sans-serif" font-size="11" text-anchor="start" fill="#111827" font-weight="normal">int8</text>
</svg>